<svg xmlns="http://www.w3.org/2000/svg" width="558.131" height="558.132">
  <path d="M283.168 558.091c5.046.486 9.152-3.394 9.152-8.464v-74.823c0-5.07-4.1-9.544-9.109-10.318-76.347-11.784-134.986-77.938-134.986-157.532 0-87.892 71.506-159.398 159.399-159.398 8.448 0 15.3 6.852 15.3 15.3v33.642c0 5.07 3.577 7.154 7.986 4.654l168.597-95.521c4.413-2.5 4.413-6.551 0-9.052L330.911 1.058c-4.412-2.5-7.986-.417-7.986 4.654v33.635c0 8.449-6.852 15.3-15.3 15.3-139.123 0-252.31 113.186-252.31 252.309-.003 130.877 100.16 238.797 227.853 251.135z"/>
</svg>
