<svg width="250" height="250" xmlns="http://www.w3.org/2000/svg" xmlns:xlink="http://www.w3.org/1999/xlink"><defs><clipPath id="m"><rect width="250" height="250" rx="10"/></clipPath><svg viewBox="0 0 3267 3267" width="190" height="190" class="qr-code" xmlns="http://www.w3.org/2000/svg" xmlns:xlink="http://www.w3.org/1999/xlink" id="n"><defs><path id="c" fill="#fc4a4a" d="M0 0h100v100H0z"/><path id="f" d="M0 28.6v42.9C0 87.3 12.8 100 28.6 100h42.9c15.9 0 28.6-12.8 28.6-28.6V28.6C100 12.7 87.2 0 71.4 0H28.6C12.8 0 0 12.8 0 28.6z" fill="#fc4a4a"/><path id="j" d="M0 0h66c18.778 0 34 15.222 34 34v32c0 18.778-15.222 34-34 34H0V0z" transform="rotate(-90 50 50)" fill="#fc4a4a"/><path id="e" d="M0 0h66c18.778 0 34 15.222 34 34v32c0 18.778-15.222 34-34 34H0V0z" transform="rotate(-180 50 50)" fill="#fc4a4a"/><path id="b" d="M0 0h66c18.778 0 34 15.222 34 34v32c0 18.778-15.222 34-34 34H0V0z" fill="#fc4a4a"/><path id="k" d="M0 0h66c18.778 0 34 15.222 34 34v32c0 18.778-15.222 34-34 34H0V0z" transform="rotate(90 50 50)" fill="#fc4a4a"/><path id="i" d="M0 0h100v66c0 18.778-15.222 34-34 34H0V0z" fill="#fc4a4a"/><path id="d" d="M0 0h100v66c0 18.778-15.222 34-34 34H0V0z" transform="rotate(-90 50 50)" fill="#fc4a4a"/><path id="a" d="M0 0h100v66c0 18.778-15.222 34-34 34H0V0z" transform="rotate(-180 50 50)" fill="#fc4a4a"/><path id="h" d="M0 0h100v66c0 18.778-15.222 34-34 34H0V0z" transform="rotate(90 50 50)" fill="#fc4a4a"/><path id="g" d="M69.5 98v2H100V69.5h-2C98 85.3 85.2 98 69.5 98z" fill="#fc4a4a"/><path id="l" fill="#fc4a4a" d="M600.002 457.33V242.657c0-95.286-12.962-118.535-18.537-124.123-5.588-5.575-28.837-18.537-124.136-18.537H242.671c-95.299 0-118.548 12.962-124.123 18.537-5.575 5.588-18.55 28.837-18.55 124.123V457.33c0 95.299 12.975 118.548 18.55 124.136 5.575 5.562 28.824 18.537 124.123 18.537h214.658c95.299 0 118.548-12.975 124.136-18.537 5.575-5.588 18.537-28.837 18.537-124.136zM457.329 0C653.34 0 700 46.662 700 242.658V457.33C700 653.34 653.338 700 457.33 700H242.67C46.663 700 0 653.338 0 457.33V242.657C0 46.662 46.662 0 242.67 0h214.66zm-61.332 200C480.004 200 500 220.008 500 303.99v92.007C500 479.992 480.004 500 395.997 500h-91.994C220.008 500 200 479.992 200 395.997V303.99C200 220.008 220.008 200 304.003 200h91.994z"/></defs><g><use xlink:href="#a" transform="translate(873)"/><use xlink:href="#b" transform="translate(970)"/><use xlink:href="#a" transform="translate(1164)"/><use xlink:href="#c" transform="translate(1261)"/><use xlink:href="#d" transform="translate(1358)"/><use xlink:href="#e" transform="translate(1746)"/><use xlink:href="#d" transform="translate(1843)"/><use xlink:href="#f" transform="translate(2037)"/><use xlink:href="#g" transform="translate(2134)"/><use xlink:href="#a" transform="translate(2231)"/><use xlink:href="#b" transform="translate(2328)"/><use xlink:href="#c" transform="translate(873 97)"/><use xlink:href="#h" transform="translate(1164 97)"/><use xlink:href="#c" transform="translate(1261 97)"/><use xlink:href="#i" transform="translate(1358 97)"/><use xlink:href="#g" transform="translate(1455 97)"/><use xlink:href="#a" transform="translate(1552 97)"/><use xlink:href="#b" transform="translate(1649 97)"/><use xlink:href="#c" transform="translate(1843 97)"/><use xlink:href="#d" transform="translate(1940 97)"/><use xlink:href="#e" transform="translate(2134 97)"/><use xlink:href="#c" transform="translate(2231 97)"/><use xlink:href="#c" transform="translate(873 194)"/><use xlink:href="#d" transform="translate(970 194)"/><use xlink:href="#e" transform="translate(1455 194)"/><use xlink:href="#i" transform="translate(1552 194)"/><use xlink:href="#g" transform="translate(1746 194)"/><use xlink:href="#c" transform="translate(1843 194)"/><use xlink:href="#c" transform="translate(1940 194)"/><use xlink:href="#c" transform="translate(2231 194)"/><use xlink:href="#g" transform="translate(776 291)"/><use xlink:href="#c" transform="translate(873 291)"/><use xlink:href="#i" transform="translate(970 291)"/><use xlink:href="#e" transform="translate(1649 291)"/><use xlink:href="#c" transform="translate(1746 291)"/><use xlink:href="#c" transform="translate(1843 291)"/><use xlink:href="#i" transform="translate(1940 291)"/><use xlink:href="#a" transform="translate(2134 291)"/><use xlink:href="#c" transform="translate(2231 291)"/><use xlink:href="#b" transform="translate(2328 291)"/><use xlink:href="#e" transform="translate(776 388)"/><use xlink:href="#c" transform="translate(873 388)"/><use xlink:href="#f" transform="translate(1067 388)"/><use xlink:href="#f" transform="translate(1358 388)"/><use xlink:href="#g" transform="translate(1455 388)"/><use xlink:href="#j" transform="translate(1552 388)"/><use xlink:href="#h" transform="translate(1746 388)"/><use xlink:href="#i" transform="translate(1843 388)"/><use xlink:href="#g" transform="translate(2037 388)"/><use xlink:href="#c" transform="translate(2134 388)"/><use xlink:href="#k" transform="translate(873 485)"/><use xlink:href="#a" transform="translate(1164 485)"/><use xlink:href="#b" transform="translate(1261 485)"/><use xlink:href="#e" transform="translate(1455 485)"/><use xlink:href="#c" transform="translate(1552 485)"/><use xlink:href="#e" transform="translate(2037 485)"/><use xlink:href="#c" transform="translate(2134 485)"/><use xlink:href="#j" transform="translate(2328 485)"/><use xlink:href="#j" transform="translate(776 582)"/><use xlink:href="#j" transform="translate(970 582)"/><use xlink:href="#k" transform="translate(1164 582)"/><use xlink:href="#j" transform="translate(1358 582)"/><use xlink:href="#k" transform="translate(1552 582)"/><use xlink:href="#g" transform="translate(1649 582)"/><use xlink:href="#j" transform="translate(1746 582)"/><use xlink:href="#f" transform="translate(1940 582)"/><use xlink:href="#k" transform="translate(2134 582)"/><use xlink:href="#k" transform="translate(2328 582)"/><use xlink:href="#g" transform="translate(679 679)"/><use xlink:href="#c" transform="translate(776 679)"/><use xlink:href="#c" transform="translate(970 679)"/><use xlink:href="#d" transform="translate(1067 679)"/><use xlink:href="#h" transform="translate(1358 679)"/><use xlink:href="#b" transform="translate(1455 679)"/><use xlink:href="#g" transform="translate(1552 679)"/><use xlink:href="#a" transform="translate(1649 679)"/><use xlink:href="#c" transform="translate(1746 679)"/><use xlink:href="#b" transform="translate(1843 679)"/><use xlink:href="#f" transform="translate(2231 679)"/><use xlink:href="#e" transform="translate(194 776)"/><use xlink:href="#d" transform="translate(291 776)"/><use xlink:href="#e" transform="translate(582 776)"/><use xlink:href="#c" transform="translate(679 776)"/><use xlink:href="#c" transform="translate(776 776)"/><use xlink:href="#h" transform="translate(970 776)"/><use xlink:href="#c" transform="translate(1067 776)"/><use xlink:href="#c" transform="translate(1164 776)"/><use xlink:href="#b" transform="translate(1261 776)"/><use xlink:href="#g" transform="translate(1455 776)"/><use xlink:href="#a" transform="translate(1552 776)"/><use xlink:href="#c" transform="translate(1649 776)"/><use xlink:href="#e" transform="translate(1940 776)"/><use xlink:href="#c" transform="translate(2037 776)"/><use xlink:href="#b" transform="translate(2134 776)"/><use xlink:href="#a" transform="translate(2425 776)"/><use xlink:href="#d" transform="translate(2522 776)"/><use xlink:href="#f" transform="translate(2716 776)"/><use xlink:href="#f" transform="translate(97 873)"/><use xlink:href="#h" transform="translate(291 873)"/><use xlink:href="#b" transform="translate(388 873)"/><use xlink:href="#h" transform="translate(679 873)"/><use xlink:href="#c" transform="translate(776 873)"/><use xlink:href="#h" transform="translate(1067 873)"/><use xlink:href="#i" transform="translate(1164 873)"/><use xlink:href="#e" transform="translate(1455 873)"/><use xlink:href="#c" transform="translate(1552 873)"/><use xlink:href="#c" transform="translate(1649 873)"/><use xlink:href="#d" transform="translate(1746 873)"/><use xlink:href="#g" transform="translate(2134 873)"/><use xlink:href="#j" transform="translate(2231 873)"/><use xlink:href="#h" transform="translate(2425 873)"/><use xlink:href="#c" transform="translate(2522 873)"/><use xlink:href="#j" transform="translate(2813 873)"/><use xlink:href="#g" transform="translate(3007 873)"/><use xlink:href="#j" transform="translate(3104 873)"/><use xlink:href="#j" transform="translate(0 970)"/><use xlink:href="#e" transform="translate(485 970)"/><use xlink:href="#b" transform="translate(582 970)"/><use xlink:href="#h" transform="translate(776 970)"/><use xlink:href="#d" transform="translate(873 970)"/><use xlink:href="#e" transform="translate(1261 970)"/><use xlink:href="#d" transform="translate(1358 970)"/><use xlink:href="#c" transform="translate(1552 970)"/><use xlink:href="#h" transform="translate(1746 970)"/><use xlink:href="#c" transform="translate(1843 970)"/><use xlink:href="#c" transform="translate(1940 970)"/><use xlink:href="#c" transform="translate(2037 970)"/><use xlink:href="#c" transform="translate(2134 970)"/><use xlink:href="#c" transform="translate(2231 970)"/><use xlink:href="#d" transform="translate(2328 970)"/><use xlink:href="#k" transform="translate(2522 970)"/><use xlink:href="#g" transform="translate(2716 970)"/><use xlink:href="#c" transform="translate(2813 970)"/><use xlink:href="#c" transform="translate(2910 970)"/><use xlink:href="#c" transform="translate(3007 970)"/><use xlink:href="#c" transform="translate(3104 970)"/><use xlink:href="#h" transform="translate(0 1067)"/><use xlink:href="#b" transform="translate(97 1067)"/><use xlink:href="#g" transform="translate(194 1067)"/><use xlink:href="#j" transform="translate(291 1067)"/><use xlink:href="#c" transform="translate(873 1067)"/><use xlink:href="#b" transform="translate(970 1067)"/><use xlink:href="#g" transform="translate(1067 1067)"/><use xlink:href="#j" transform="translate(1164 1067)"/><use xlink:href="#g" transform="translate(1261 1067)"/><use xlink:href="#c" transform="translate(1358 1067)"/><use xlink:href="#c" transform="translate(1552 1067)"/><use xlink:href="#d" transform="translate(1649 1067)"/><use xlink:href="#k" transform="translate(2328 1067)"/><use xlink:href="#e" transform="translate(2619 1067)"/><use xlink:href="#c" transform="translate(2716 1067)"/><use xlink:href="#i" transform="translate(2813 1067)"/><use xlink:href="#k" transform="translate(3104 1067)"/><use xlink:href="#e" transform="translate(194 1164)"/><use xlink:href="#c" transform="translate(291 1164)"/><use xlink:href="#c" transform="translate(388 1164)"/><use xlink:href="#c" transform="translate(485 1164)"/><use xlink:href="#b" transform="translate(582 1164)"/><use xlink:href="#k" transform="translate(873 1164)"/><use xlink:href="#e" transform="translate(1067 1164)"/><use xlink:href="#c" transform="translate(1164 1164)"/><use xlink:href="#c" transform="translate(1261 1164)"/><use xlink:href="#c" transform="translate(1358 1164)"/><use xlink:href="#c" transform="translate(1552 1164)"/><use xlink:href="#c" transform="translate(1649 1164)"/><use xlink:href="#a" transform="translate(1940 1164)"/><use xlink:href="#d" transform="translate(2037 1164)"/><use xlink:href="#g" transform="translate(2328 1164)"/><use xlink:href="#j" transform="translate(2425 1164)"/><use xlink:href="#k" transform="translate(2716 1164)"/><use xlink:href="#g" transform="translate(0 1261)"/><use xlink:href="#j" transform="translate(97 1261)"/><use xlink:href="#k" transform="translate(291 1261)"/><use xlink:href="#f" transform="translate(776 1261)"/><use xlink:href="#k" transform="translate(1164 1261)"/><use xlink:href="#c" transform="translate(1358 1261)"/><use xlink:href="#h" transform="translate(1552 1261)"/><use xlink:href="#c" transform="translate(1649 1261)"/><use xlink:href="#b" transform="translate(1746 1261)"/><use xlink:href="#g" transform="translate(1843 1261)"/><use xlink:href="#c" transform="translate(1940 1261)"/><use xlink:href="#c" transform="translate(2037 1261)"/><use xlink:href="#e" transform="translate(2328 1261)"/><use xlink:href="#i" transform="translate(2425 1261)"/><use xlink:href="#j" transform="translate(2619 1261)"/><use xlink:href="#g" transform="translate(2813 1261)"/><use xlink:href="#j" transform="translate(2910 1261)"/><use xlink:href="#a" transform="translate(0 1358)"/><use xlink:href="#c" transform="translate(97 1358)"/><use xlink:href="#d" transform="translate(194 1358)"/><use xlink:href="#f" transform="translate(582 1358)"/><use xlink:href="#g" transform="translate(873 1358)"/><use xlink:href="#j" transform="translate(970 1358)"/><use xlink:href="#c" transform="translate(1358 1358)"/><use xlink:href="#b" transform="translate(1455 1358)"/><use xlink:href="#e" transform="translate(1843 1358)"/><use xlink:href="#c" transform="translate(1940 1358)"/><use xlink:href="#c" transform="translate(2037 1358)"/><use xlink:href="#h" transform="translate(2619 1358)"/><use xlink:href="#c" transform="translate(2716 1358)"/><use xlink:href="#c" transform="translate(2813 1358)"/><use xlink:href="#c" transform="translate(2910 1358)"/><use xlink:href="#h" transform="translate(0 1455)"/><use xlink:href="#c" transform="translate(97 1455)"/><use xlink:href="#i" transform="translate(194 1455)"/><use xlink:href="#e" transform="translate(776 1455)"/><use xlink:href="#c" transform="translate(873 1455)"/><use xlink:href="#c" transform="translate(970 1455)"/><use xlink:href="#c" transform="translate(1067 1455)"/><use xlink:href="#d" transform="translate(1164 1455)"/><use xlink:href="#k" transform="translate(1358 1455)"/><use xlink:href="#a" transform="translate(1552 1455)"/><use xlink:href="#c" transform="translate(1649 1455)"/><use xlink:href="#b" transform="translate(1746 1455)"/><use xlink:href="#c" transform="translate(1940 1455)"/><use xlink:href="#c" transform="translate(2037 1455)"/><use xlink:href="#c" transform="translate(2134 1455)"/><use xlink:href="#c" transform="translate(2231 1455)"/><use xlink:href="#d" transform="translate(2328 1455)"/><use xlink:href="#c" transform="translate(2716 1455)"/><use xlink:href="#c" transform="translate(2910 1455)"/><use xlink:href="#b" transform="translate(3007 1455)"/><use xlink:href="#c" transform="translate(97 1552)"/><use xlink:href="#f" transform="translate(388 1552)"/><use xlink:href="#e" transform="translate(582 1552)"/><use xlink:href="#b" transform="translate(679 1552)"/><use xlink:href="#c" transform="translate(873 1552)"/><use xlink:href="#c" transform="translate(970 1552)"/><use xlink:href="#c" transform="translate(1067 1552)"/><use xlink:href="#c" transform="translate(1164 1552)"/><use xlink:href="#b" transform="translate(1261 1552)"/><use xlink:href="#h" transform="translate(1552 1552)"/><use xlink:href="#c" transform="translate(1649 1552)"/><use xlink:href="#e" transform="translate(1843 1552)"/><use xlink:href="#c" transform="translate(1940 1552)"/><use xlink:href="#i" transform="translate(2037 1552)"/><use xlink:href="#c" transform="translate(2231 1552)"/><use xlink:href="#c" transform="translate(2328 1552)"/><use xlink:href="#c" transform="translate(2425 1552)"/><use xlink:href="#c" transform="translate(2522 1552)"/><use xlink:href="#c" transform="translate(2619 1552)"/><use xlink:href="#c" transform="translate(2716 1552)"/><use xlink:href="#c" transform="translate(2813 1552)"/><use xlink:href="#c" transform="translate(2910 1552)"/><use xlink:href="#g" transform="translate(3007 1552)"/><use xlink:href="#j" transform="translate(3104 1552)"/><use xlink:href="#e" transform="translate(0 1649)"/><use xlink:href="#c" transform="translate(97 1649)"/><use xlink:href="#b" transform="translate(194 1649)"/><use xlink:href="#f" transform="translate(485 1649)"/><use xlink:href="#a" transform="translate(776 1649)"/><use xlink:href="#c" transform="translate(873 1649)"/><use xlink:href="#c" transform="translate(970 1649)"/><use xlink:href="#c" transform="translate(1164 1649)"/><use xlink:href="#e" transform="translate(1358 1649)"/><use xlink:href="#d" transform="translate(1455 1649)"/><use xlink:href="#k" transform="translate(1649 1649)"/><use xlink:href="#e" transform="translate(2134 1649)"/><use xlink:href="#i" transform="translate(2231 1649)"/><use xlink:href="#c" transform="translate(2425 1649)"/><use xlink:href="#c" transform="translate(2522 1649)"/><use xlink:href="#c" transform="translate(2619 1649)"/><use xlink:href="#i" transform="translate(2716 1649)"/><use xlink:href="#c" transform="translate(2910 1649)"/><use xlink:href="#c" transform="translate(3007 1649)"/><use xlink:href="#i" transform="translate(3104 1649)"/><use xlink:href="#c" transform="translate(97 1746)"/><use xlink:href="#f" transform="translate(291 1746)"/><use xlink:href="#f" transform="translate(582 1746)"/><use xlink:href="#c" transform="translate(776 1746)"/><use xlink:href="#c" transform="translate(970 1746)"/><use xlink:href="#h" transform="translate(1164 1746)"/><use xlink:href="#d" transform="translate(1261 1746)"/><use xlink:href="#g" transform="translate(1358 1746)"/><use xlink:href="#c" transform="translate(1455 1746)"/><use xlink:href="#f" transform="translate(1746 1746)"/><use xlink:href="#f" transform="translate(1940 1746)"/><use xlink:href="#k" transform="translate(2425 1746)"/><use xlink:href="#h" transform="translate(2910 1746)"/><use xlink:href="#c" transform="translate(3007 1746)"/><use xlink:href="#g" transform="translate(0 1843)"/><use xlink:href="#c" transform="translate(97 1843)"/><use xlink:href="#b" transform="translate(194 1843)"/><use xlink:href="#k" transform="translate(776 1843)"/><use xlink:href="#c" transform="translate(970 1843)"/><use xlink:href="#d" transform="translate(1067 1843)"/><use xlink:href="#c" transform="translate(1261 1843)"/><use xlink:href="#c" transform="translate(1358 1843)"/><use xlink:href="#i" transform="translate(1455 1843)"/><use xlink:href="#g" transform="translate(1552 1843)"/><use xlink:href="#j" transform="translate(1649 1843)"/><use xlink:href="#f" transform="translate(1843 1843)"/><use xlink:href="#f" transform="translate(2134 1843)"/><use xlink:href="#f" transform="translate(2522 1843)"/><use xlink:href="#f" transform="translate(2716 1843)"/><use xlink:href="#c" transform="translate(3007 1843)"/><use xlink:href="#d" transform="translate(3104 1843)"/><use xlink:href="#a" transform="translate(0 1940)"/><use xlink:href="#c" transform="translate(97 1940)"/><use xlink:href="#f" transform="translate(291 1940)"/><use xlink:href="#e" transform="translate(582 1940)"/><use xlink:href="#d" transform="translate(679 1940)"/><use xlink:href="#c" transform="translate(970 1940)"/><use xlink:href="#i" transform="translate(1067 1940)"/><use xlink:href="#c" transform="translate(1261 1940)"/><use xlink:href="#c" transform="translate(1358 1940)"/><use xlink:href="#e" transform="translate(1552 1940)"/><use xlink:href="#c" transform="translate(1649 1940)"/><use xlink:href="#f" transform="translate(2037 1940)"/><use xlink:href="#a" transform="translate(2813 1940)"/><use xlink:href="#c" transform="translate(2910 1940)"/><use xlink:href="#c" transform="translate(3007 1940)"/><use xlink:href="#c" transform="translate(3104 1940)"/><use xlink:href="#h" transform="translate(0 2037)"/><use xlink:href="#c" transform="translate(97 2037)"/><use xlink:href="#b" transform="translate(194 2037)"/><use xlink:href="#f" transform="translate(485 2037)"/><use xlink:href="#k" transform="translate(679 2037)"/><use xlink:href="#c" transform="translate(970 2037)"/><use xlink:href="#c" transform="translate(1261 2037)"/><use xlink:href="#c" transform="translate(1358 2037)"/><use xlink:href="#b" transform="translate(1455 2037)"/><use xlink:href="#k" transform="translate(1649 2037)"/><use xlink:href="#g" transform="translate(1746 2037)"/><use xlink:href="#a" transform="translate(1843 2037)"/><use xlink:href="#b" transform="translate(1940 2037)"/><use xlink:href="#g" transform="translate(2037 2037)"/><use xlink:href="#a" transform="translate(2134 2037)"/><use xlink:href="#d" transform="translate(2231 2037)"/><use xlink:href="#j" transform="translate(2522 2037)"/><use xlink:href="#k" transform="translate(2813 2037)"/><use xlink:href="#c" transform="translate(3104 2037)"/><use xlink:href="#f" transform="translate(582 2134)"/><use xlink:href="#k" transform="translate(970 2134)"/><use xlink:href="#h" transform="translate(1261 2134)"/><use xlink:href="#c" transform="translate(1358 2134)"/><use xlink:href="#f" transform="translate(1552 2134)"/><use xlink:href="#e" transform="translate(1746 2134)"/><use xlink:href="#c" transform="translate(1843 2134)"/><use xlink:href="#e" transform="translate(2037 2134)"/><use xlink:href="#c" transform="translate(2134 2134)"/><use xlink:href="#c" transform="translate(2231 2134)"/><use xlink:href="#d" transform="translate(2328 2134)"/><use xlink:href="#k" transform="translate(2522 2134)"/><use xlink:href="#f" transform="translate(2910 2134)"/><use xlink:href="#k" transform="translate(3104 2134)"/><use xlink:href="#e" transform="translate(97 2231)"/><use xlink:href="#b" transform="translate(194 2231)"/><use xlink:href="#f" transform="translate(1164 2231)"/><use xlink:href="#h" transform="translate(1358 2231)"/><use xlink:href="#b" transform="translate(1455 2231)"/><use xlink:href="#g" transform="translate(1552 2231)"/><use xlink:href="#j" transform="translate(1649 2231)"/><use xlink:href="#c" transform="translate(1843 2231)"/><use xlink:href="#b" transform="translate(1940 2231)"/><use xlink:href="#c" transform="translate(2134 2231)"/><use xlink:href="#c" transform="translate(2231 2231)"/><use xlink:href="#c" transform="translate(2328 2231)"/><use xlink:href="#d" transform="translate(2425 2231)"/><use xlink:href="#g" transform="translate(2522 2231)"/><use xlink:href="#j" transform="translate(2619 2231)"/><use xlink:href="#f" transform="translate(2813 2231)"/><use xlink:href="#j" transform="translate(3007 2231)"/><use xlink:href="#f" transform="translate(0 2328)"/><use xlink:href="#f" transform="translate(291 2328)"/><use xlink:href="#f" transform="translate(582 2328)"/><use xlink:href="#j" transform="translate(776 2328)"/><use xlink:href="#j" transform="translate(1261 2328)"/><use xlink:href="#e" transform="translate(1552 2328)"/><use xlink:href="#c" transform="translate(1649 2328)"/><use xlink:href="#g" transform="translate(1746 2328)"/><use xlink:href="#c" transform="translate(1843 2328)"/><use xlink:href="#k" transform="translate(2134 2328)"/><use xlink:href="#c" transform="translate(2328 2328)"/><use xlink:href="#c" transform="translate(2425 2328)"/><use xlink:href="#c" transform="translate(2522 2328)"/><use xlink:href="#c" transform="translate(2619 2328)"/><use xlink:href="#d" transform="translate(2716 2328)"/><use xlink:href="#c" transform="translate(3007 2328)"/><use xlink:href="#c" transform="translate(776 2425)"/><use xlink:href="#c" transform="translate(873 2425)"/><use xlink:href="#c" transform="translate(970 2425)"/><use xlink:href="#b" transform="translate(1067 2425)"/><use xlink:href="#h" transform="translate(1261 2425)"/><use xlink:href="#d" transform="translate(1358 2425)"/><use xlink:href="#h" transform="translate(1649 2425)"/><use xlink:href="#c" transform="translate(1746 2425)"/><use xlink:href="#c" transform="translate(1843 2425)"/><use xlink:href="#c" transform="translate(1940 2425)"/><use xlink:href="#d" transform="translate(2037 2425)"/><use xlink:href="#g" transform="translate(2231 2425)"/><use xlink:href="#c" transform="translate(2328 2425)"/><use xlink:href="#c" transform="translate(2716 2425)"/><use xlink:href="#k" transform="translate(3007 2425)"/><use xlink:href="#k" transform="translate(776 2522)"/><use xlink:href="#c" transform="translate(970 2522)"/><use xlink:href="#j" transform="translate(1164 2522)"/><use xlink:href="#g" transform="translate(1261 2522)"/><use xlink:href="#c" transform="translate(1358 2522)"/><use xlink:href="#d" transform="translate(1455 2522)"/><use xlink:href="#k" transform="translate(2037 2522)"/><use xlink:href="#a" transform="translate(2231 2522)"/><use xlink:href="#c" transform="translate(2328 2522)"/><use xlink:href="#f" transform="translate(2522 2522)"/><use xlink:href="#c" transform="translate(2716 2522)"/><use xlink:href="#c" transform="translate(2813 2522)"/><use xlink:href="#d" transform="translate(2910 2522)"/><use xlink:href="#e" transform="translate(873 2619)"/><use xlink:href="#c" transform="translate(970 2619)"/><use xlink:href="#c" transform="translate(1164 2619)"/><use xlink:href="#c" transform="translate(1261 2619)"/><use xlink:href="#c" transform="translate(1358 2619)"/><use xlink:href="#c" transform="translate(1455 2619)"/><use xlink:href="#c" transform="translate(1552 2619)"/><use xlink:href="#d" transform="translate(1649 2619)"/><use xlink:href="#g" transform="translate(1843 2619)"/><use xlink:href="#j" transform="translate(1940 2619)"/><use xlink:href="#g" transform="translate(2134 2619)"/><use xlink:href="#c" transform="translate(2231 2619)"/><use xlink:href="#c" transform="translate(2328 2619)"/><use xlink:href="#g" transform="translate(2619 2619)"/><use xlink:href="#c" transform="translate(2716 2619)"/><use xlink:href="#c" transform="translate(2813 2619)"/><use xlink:href="#c" transform="translate(2910 2619)"/><use xlink:href="#c" transform="translate(3007 2619)"/><use xlink:href="#b" transform="translate(3104 2619)"/><use xlink:href="#c" transform="translate(970 2716)"/><use xlink:href="#k" transform="translate(1164 2716)"/><use xlink:href="#k" transform="translate(1455 2716)"/><use xlink:href="#h" transform="translate(1649 2716)"/><use xlink:href="#c" transform="translate(1746 2716)"/><use xlink:href="#c" transform="translate(1843 2716)"/><use xlink:href="#c" transform="translate(1940 2716)"/><use xlink:href="#a" transform="translate(2134 2716)"/><use xlink:href="#c" transform="translate(2231 2716)"/><use xlink:href="#c" transform="translate(2328 2716)"/><use xlink:href="#c" transform="translate(2425 2716)"/><use xlink:href="#c" transform="translate(2522 2716)"/><use xlink:href="#c" transform="translate(2619 2716)"/><use xlink:href="#c" transform="translate(2716 2716)"/><use xlink:href="#c" transform="translate(2813 2716)"/><use xlink:href="#c" transform="translate(2910 2716)"/><use xlink:href="#c" transform="translate(3007 2716)"/><use xlink:href="#j" transform="translate(776 2813)"/><use xlink:href="#g" transform="translate(873 2813)"/><use xlink:href="#c" transform="translate(970 2813)"/><use xlink:href="#b" transform="translate(1067 2813)"/><use xlink:href="#e" transform="translate(1261 2813)"/><use xlink:href="#d" transform="translate(1358 2813)"/><use xlink:href="#g" transform="translate(1455 2813)"/><use xlink:href="#j" transform="translate(1552 2813)"/><use xlink:href="#c" transform="translate(1746 2813)"/><use xlink:href="#k" transform="translate(1940 2813)"/><use xlink:href="#g" transform="translate(2037 2813)"/><use xlink:href="#c" transform="translate(2134 2813)"/><use xlink:href="#k" transform="translate(2619 2813)"/><use xlink:href="#c" transform="translate(2813 2813)"/><use xlink:href="#c" transform="translate(2910 2813)"/><use xlink:href="#c" transform="translate(3007 2813)"/><use xlink:href="#b" transform="translate(3104 2813)"/><use xlink:href="#h" transform="translate(776 2910)"/><use xlink:href="#c" transform="translate(873 2910)"/><use xlink:href="#c" transform="translate(970 2910)"/><use xlink:href="#h" transform="translate(1358 2910)"/><use xlink:href="#c" transform="translate(1455 2910)"/><use xlink:href="#i" transform="translate(1552 2910)"/><use xlink:href="#h" transform="translate(1746 2910)"/><use xlink:href="#d" transform="translate(1843 2910)"/><use xlink:href="#g" transform="translate(1940 2910)"/><use xlink:href="#a" transform="translate(2037 2910)"/><use xlink:href="#i" transform="translate(2134 2910)"/><use xlink:href="#e" transform="translate(2425 2910)"/><use xlink:href="#d" transform="translate(2522 2910)"/><use xlink:href="#k" transform="translate(2813 2910)"/><use xlink:href="#c" transform="translate(970 3007)"/><use xlink:href="#a" transform="translate(1164 3007)"/><use xlink:href="#d" transform="translate(1261 3007)"/><use xlink:href="#g" transform="translate(1358 3007)"/><use xlink:href="#c" transform="translate(1455 3007)"/><use xlink:href="#h" transform="translate(1843 3007)"/><use xlink:href="#c" transform="translate(1940 3007)"/><use xlink:href="#c" transform="translate(2037 3007)"/><use xlink:href="#f" transform="translate(2328 3007)"/><use xlink:href="#c" transform="translate(2522 3007)"/><use xlink:href="#f" transform="translate(3104 3007)"/><use xlink:href="#k" transform="translate(970 3104)"/><use xlink:href="#h" transform="translate(1164 3104)"/><use xlink:href="#c" transform="translate(1261 3104)"/><use xlink:href="#c" transform="translate(1358 3104)"/><use xlink:href="#c" transform="translate(1455 3104)"/><use xlink:href="#c" transform="translate(1552 3104)"/><use xlink:href="#c" transform="translate(1649 3104)"/><use xlink:href="#b" transform="translate(1746 3104)"/><use xlink:href="#h" transform="translate(1940 3104)"/><use xlink:href="#c" transform="translate(2037 3104)"/><use xlink:href="#c" transform="translate(2134 3104)"/><use xlink:href="#b" transform="translate(2231 3104)"/><use xlink:href="#e" transform="translate(2425 3104)"/><use xlink:href="#c" transform="translate(2522 3104)"/><use xlink:href="#c" transform="translate(2619 3104)"/><use xlink:href="#b" transform="translate(2716 3104)"/><use xlink:href="#f" transform="translate(2910 3104)"/><use fill-rule="evenodd" xlink:href="#l"/><use fill-rule="evenodd" transform="translate(2496)" xlink:href="#l"/><use fill-rule="evenodd" transform="translate(0 2496)" xlink:href="#l"/></g></svg></defs><g clip-path="url(#m)"><path fill="#2c2929" d="M0 0h250v250H0z"/><use x="30" y="30" xlink:href="#n" xmlns="http://www.w3.org/2000/svg" xmlns:xlink="http://www.w3.org/1999/xlink"/></g></svg>